/* XPM */
static char *close_pressed[] = {
/* columns rows colors chars-per-pixel */
"34 34 28 1 ",
"  c #806453",
". c #816655",
"X c #826656",
"o c #826756",
"O c #846958",
"+ c #846959",
"@ c #866B5B",
"# c #866C5C",
"$ c #876D5C",
"% c #876D5D",
"& c #886E5E",
"* c #896F5F",
"= c #897060",
"- c #8B7263",
"; c #8C7363",
": c #8D7465",
"> c #8F7667",
", c #91796B",
"< c #927A6B",
"1 c #927A6C",
"2 c #937B6D",
"3 c #947C6E",
"4 c #BDAEA5",
"5 c #BDAEA6",
"6 c #BFB1A9",
"7 c #E2DCD8",
"8 c #E3DCD9",
"9 c #FEFDFD",
/* pixels */
"           .$;>,11,>;$.           ",
"         +:122222222221:+         ",
"       o:2222222222222222:o       ",
"      #<222222222222222222<#      ",
"     *2222222222222222222222=     ",
"    =222222222222222222222222*    ",
"   #22222222222222222222222222#   ",
"  o<22222222222222222222222222<o  ",
"  :2222222222222222222222222222:  ",
" O222222222222222222222222222222+ ",
" :222222222222222222222222222222: ",
".12222222222222222222222222222221.",
"%22222222222232222223222222222222$",
";22222222222385222258322222222222;",
">22222222222249622496222222222222>",
",22222222222224964962222222222222,",
"1222222222222225995222222222222221",
"1222222222222225995222222222222221",
",22222222222224964962222222222222,",
">22222222222249622496222222222222>",
";22222222222375222258322222222222-",
"$22222222222232222223222222222222$",
".12222222222222222222222222222221.",
" :222222222222222222222222222222: ",
" O222222222222222222222222222222+ ",
"  :2222222222222222222222222222:  ",
"  o<22222222222222222222222222<X  ",
"   #22222222222222222222222222@   ",
"    *222222222222222222222222*    ",
"     &2222222222222222222222=     ",
"      #<222222222222222222<@      ",
"       o:2222222222222222:X       ",
"         +:122222222221:O         ",
"           .$;>,11,>;$.           "
};
