/* XPM */
static char *close_prelight[] = {
/* columns rows colors chars-per-pixel */
"34 34 25 1 ",
"  c #806453",
". c #816554",
"X c #816655",
"o c #826756",
"O c #836857",
"+ c #846958",
"@ c #846959",
"# c #856A5A",
"$ c #856B5A",
"% c #866B5B",
"& c #866C5C",
"* c #876D5D",
"= c #886E5E",
"- c #896F5F",
"; c #8A7060",
": c #8B7263",
"> c #8C7363",
", c #8C7364",
"< c #8D7465",
"1 c #B8A9A0",
"2 c #B9A9A0",
"3 c #BBADA4",
"4 c #E0DAD6",
"5 c #E1DAD6",
"6 c #FEFDFD",
/* pixels */
"           .#=;:>>:;=@.           ",
"         O=,,,,,,,,,,,,=O         ",
"       X-,,,,,,,,,,,,,,,,=X       ",
"      @>,,,,,,,,,,,,,,,,,,>+      ",
"     %,,,,,,,,,,,,,,,,,,,,,,&     ",
"    %,,,,,,,,,,,,,,,,,,,,,,,,%    ",
"   @,,,,,,,,,,,,,,,,,,,,,,,,,,+   ",
"  X>,,,,,,,,,,,,,,,,,,,,,,,,,,>X  ",
"  -,,,,,,,,,,,,,,,,,,,,,,,,,,,,=  ",
" O,,,,,,,,,,,,,,,,,,,,,,,,,,,,,,O ",
" =,,,,,,,,,,,,,,,,,,,,,,,,,,,,,,= ",
".,,,,,,,,,,,,,,,,,,,,,,,,,,,,,,,,.",
"#,,,,,,,,,,,,<,,,,,,<,,,,,,,,,,,,@",
"=,,,,,,,,,,,<52,,,,25<,,,,,,,,,,,*",
";,,,,,,,,,,,,163,,163,,,,,,,,,,,,;",
":,,,,,,,,,,,,,163163,,,,,,,,,,,,,:",
">,,,,,,,,,,,,,,2662,,,,,,,,,,,,,,>",
">,,,,,,,,,,,,,,2662,,,,,,,,,,,,,,>",
":,,,,,,,,,,,,,163163,,,,,,,,,,,,,:",
";,,,,,,,,,,,,163,,163,,,,,,,,,,,,;",
"=,,,,,,,,,,,<42,,,,25<,,,,,,,,,,,*",
"#,,,,,,,,,,,,<,,,,,,<,,,,,,,,,,,,@",
".,,,,,,,,,,,,,,,,,,,,,,,,,,,,,,,,.",
" =,,,,,,,,,,,,,,,,,,,,,,,,,,,,,,= ",
" o,,,,,,,,,,,,,,,,,,,,,,,,,,,,,,O ",
"  =,,,,,,,,,,,,,,,,,,,,,,,,,,,,=  ",
"  X>,,,,,,,,,,,,,,,,,,,,,,,,,,>X  ",
"   +,,,,,,,,,,,,,,,,,,,,,,,,,,+   ",
"    %,,,,,,,,,,,,,,,,,,,,,,,,%    ",
"     $,,,,,,,,,,,,,,,,,,,,,,&     ",
"      +>,,,,,,,,,,,,,,,,,,>+      ",
"       X=,,,,,,,,,,,,,,,,=X       ",
"         O=,,,,,,,,,,,,=o         ",
"           .@*;:>>:;*@.           "
};
