/* XPM */
static char *hide_prelight[] = {
/* columns rows colors chars-per-pixel */
"34 34 19 1 ",
"  c #806453",
". c #816554",
"X c #816655",
"o c #826756",
"O c #836857",
"+ c #846958",
"@ c #846959",
"# c #856A5A",
"$ c #856B5A",
"% c #866B5B",
"& c #866C5C",
"* c #876D5D",
"= c #886E5E",
"- c #896F5F",
"; c #8A7060",
": c #8B7263",
"> c #8C7363",
", c #8C7364",
"< c white",
/* pixels */
"           .#=;:>>:;=@.           ",
"         O=,,,,,,,,,,,,=O         ",
"       X-,,,,,,,,,,,,,,,,=X       ",
"      @>,,,,,,,,,,,,,,,,,,>+      ",
"     %,,,,,,,,,,,,,,,,,,,,,,&     ",
"    %,,,,,,,,,,,,,,,,,,,,,,,,%    ",
"   @,,,,,,,,,,,,,,,,,,,,,,,,,,+   ",
"  X>,,,,,,,,,,,,,,,,,,,,,,,,,,>X  ",
"  -,,,,,,,,,,,,,,,,,,,,,,,,,,,,=  ",
" O,,,,,,,,,,,,,,,,,,,,,,,,,,,,,,O ",
" =,,,,,,,,,,,,,,,,,,,,,,,,,,,,,,= ",
".,,,,,,,,,,,,,,,,,,,,,,,,,,,,,,,,.",
"#,,,,,,,,,,,,,,,,,,,,,,,,,,,,,,,,@",
"=,,,,,,,,,,,,,,,,,,,,,,,,,,,,,,,,*",
";,,,,,,,,,,,,,,,,,,,,,,,,,,,,,,,,;",
":,,,,,,,,,,,,,,,,,,,,,,,,,,,,,,,,:",
">,,,,,,,,,,,,,,,,,,,,,,,,,,,,,,,,>",
">,,,,,,,,,,,,,,,,,,,,,,,,,,,,,,,,>",
":,,,,,,,,,,,,,,,,,,,,,,,,,,,,,,,,:",
";,,,,,,,,,,,,<<<<<<<<,,,,,,,,,,,,;",
"=,,,,,,,,,,,,,,,,,,,,,,,,,,,,,,,,*",
"#,,,,,,,,,,,,,,,,,,,,,,,,,,,,,,,,@",
".,,,,,,,,,,,,,,,,,,,,,,,,,,,,,,,,.",
" =,,,,,,,,,,,,,,,,,,,,,,,,,,,,,,= ",
" o,,,,,,,,,,,,,,,,,,,,,,,,,,,,,,O ",
"  =,,,,,,,,,,,,,,,,,,,,,,,,,,,,=  ",
"  X>,,,,,,,,,,,,,,,,,,,,,,,,,,>X  ",
"   +,,,,,,,,,,,,,,,,,,,,,,,,,,+   ",
"    %,,,,,,,,,,,,,,,,,,,,,,,,%    ",
"     $,,,,,,,,,,,,,,,,,,,,,,&     ",
"      +>,,,,,,,,,,,,,,,,,,>+      ",
"       X=,,,,,,,,,,,,,,,,=X       ",
"         O=,,,,,,,,,,,,=o         ",
"           .@*;:>>:;*@.           "
};
