/* XPM */
static char *top_left_active[] = {
/* columns rows colors chars-per-pixel */
"8 42 5 1 ",
"  c None",
". c #806353",
"X c #806452",
"o c #806453",
"O c #806553",
/* pixels */
"    .ooo",
"  Oooooo",
" Ooooooo",
" ooooooo",
"Xooooooo",
"oooooooo",
"oooooooo",
"oooooooo",
"oooooooo",
"oooooooo",
"oooooooo",
"oooooooo",
"oooooooo",
"oooooooo",
"oooooooo",
"oooooooo",
"oooooooo",
"oooooooo",
"oooooooo",
"oooooooo",
"oooooooo",
"oooooooo",
"oooooooo",
"oooooooo",
"oooooooo",
"oooooooo",
"oooooooo",
"oooooooo",
"oooooooo",
"oooooooo",
"oooooooo",
"oooooooo",
"oooooooo",
"oooooooo",
"oooooooo",
"oooooooo",
"oooooooo",
"oooooooo",
"oooooooo",
"oooooooo",
"oooooooo",
"oooooooo"
};
