/* XPM */
static char *close_pressed[] = {
/* columns rows colors chars-per-pixel */
"34 34 35 1 ",
"  c #2E2E2D",
". c #30302F",
"X c #313130",
"o c #323231",
"O c #343433",
"+ c #353433",
"@ c #353534",
"# c #383837",
"$ c gray22",
"% c #393838",
"& c #393938",
"* c #393939",
"= c #3B3B3A",
"- c #3C3C3B",
"; c #3D3C3B",
": c #3D3D3C",
"> c #3E3D3C",
", c #41403F",
"< c #414140",
"1 c #424140",
"2 c #424241",
"3 c #434241",
"4 c #464544",
"5 c #464645",
"6 c #474645",
"7 c #4A4948",
"8 c #4B4A49",
"9 c #4C4B4A",
"0 c #4D4C4B",
"q c #8D8B8A",
"w c #8D8C8A",
"e c #918F8E",
"r c #C7C5C3",
"t c #C8C6C3",
"y c #F2EFED",
/* pixels */
"           .*<578875<*.           ",
"         @38999999999983+         ",
"       o399999999999999993o       ",
"      &89999999999999999998#      ",
"     -9999999999999999999999>     ",
"    :999999999999999999999999;    ",
"   &99999999999999999999999999#   ",
"  o8999999999999999999999999998X  ",
"  399999999999999999999999999993  ",
" @999999999999999999999999999999+ ",
" 39999999999999999999999999999993 ",
".89999999999999999999999999999998.",
"&99999999999909999990999999999999%",
"<999999999990tw9999wt099999999999,",
"6999999999999qye99qye9999999999994",
"79999999999999qyeqye99999999999997",
"899999999999999wyyw999999999999998",
"899999999999999wyyw999999999999998",
"79999999999999qyeqye99999999999997",
"6999999999999qye99qye9999999999994",
",999999999990rw9999wt099999999999,",
"*99999999999909999990999999999999$",
".89999999999999999999999999999998.",
" 39999999999999999999999999999992 ",
" @999999999999999999999999999999+ ",
"  399999999999999999999999999992  ",
"  o8999999999999999999999999998X  ",
"   #99999999999999999999999999#   ",
"    ;999999999999999999999999-    ",
"     =9999999999999999999999>     ",
"      #89999999999999999998#      ",
"       X399999999999999991X       ",
"         O38999999999982@         ",
"           .%,578874,%.           "
};
