/* XPM */
static char *hide_pressed[] = {
/* columns rows colors chars-per-pixel */
"34 34 16 1 ",
"  c #3B3938",
". c #3C3A39",
"X c #3E3B3A",
"o c #3E3C3A",
"O c #464342",
"+ c #464442",
"@ c #4F4C4B",
"# c #4F4D4B",
"$ c #504D4B",
"% c #504D4C",
"& c #504E4C",
"* c #514E4C",
"= c #54514F",
"- c #545250",
"; c #555351",
": c #E9E2DE",
/* pixels */
"  .+#-;;;;;;;;;;;;;;;;;;;;;;-#O.  ",
" o*;;;;;;;;;;;;;;;;;;;;;;;;;;;;&o ",
".*;;;;;;;;;;;;;;;;;;;;;;;;;;;;;;%.",
"+;;;;;;;;;;;;;;;;;;;;;;;;;;;;;;;;O",
"$;;;;;;;;;;;;;;;;;;;;;;;;;;;;;;;;#",
"=;;;;;;;;;;;;;;;;;;;;;;;;;;;;;;;;=",
";;;;;;;;;;;;;;;;;;;;;;;;;;;;;;;;;;",
";;;;;;;;;;;;;;;;;;;;;;;;;;;;;;;;;;",
";;;;;;;;;;;;;;;;;;;;;;;;;;;;;;;;;;",
";;;;;;;;;;;;;;;;;;;;;;;;;;;;;;;;;;",
";;;;;;;;;;;;;;;;;;;;;;;;;;;;;;;;;;",
";;;;;;;;;;;;;;;;;;;;;;;;;;;;;;;;;;",
";;;;;;;;;;;;;;;;;;;;;;;;;;;;;;;;;;",
";;;;;;;;;;;;;;;;;;;;;;;;;;;;;;;;;;",
";;;;;;;;;;;;;;;;;;;;;;;;;;;;;;;;;;",
";;;;;;;;;;;;;;;;;;;;;;;;;;;;;;;;;;",
";;;;;;;;;;;;;;;;;;;;;;;;;;;;;;;;;;",
";;;;;;;;;;;;;;;;;;;;;;;;;;;;;;;;;;",
";;;;;;;;;;;;;;;;;;;;;;;;;;;;;;;;;;",
";;;;;;;;;;;;;::::::::;;;;;;;;;;;;;",
";;;;;;;;;;;;;;;;;;;;;;;;;;;;;;;;;;",
";;;;;;;;;;;;;;;;;;;;;;;;;;;;;;;;;;",
";;;;;;;;;;;;;;;;;;;;;;;;;;;;;;;;;;",
";;;;;;;;;;;;;;;;;;;;;;;;;;;;;;;;;;",
";;;;;;;;;;;;;;;;;;;;;;;;;;;;;;;;;;",
";;;;;;;;;;;;;;;;;;;;;;;;;;;;;;;;;;",
";;;;;;;;;;;;;;;;;;;;;;;;;;;;;;;;;;",
";;;;;;;;;;;;;;;;;;;;;;;;;;;;;;;;;;",
"=;;;;;;;;;;;;;;;;;;;;;;;;;;;;;;;;=",
"#;;;;;;;;;;;;;;;;;;;;;;;;;;;;;;;;@",
"+;;;;;;;;;;;;;;;;;;;;;;;;;;;;;;;;O",
".&;;;;;;;;;;;;;;;;;;;;;;;;;;;;;;%.",
" o%;;;;;;;;;;;;;;;;;;;;;;;;;;;;%X ",
"  .O@=;;;;;;;;;;;;;;;;;;;;;;=@O.  "
};
