/* XPM */
static char *hide_prelight[] = {
/* columns rows colors chars-per-pixel */
"34 34 20 1 ",
"  c #2E2E2D",
". c #30302F",
"X c #323231",
"o c #333331",
"O c #333332",
"+ c #343433",
"@ c #353533",
"# c #353534",
"$ c #363635",
"% c #373736",
"& c #383836",
"* c #383837",
"= c #3A3A38",
"- c #3B3B3A",
"; c #3C3C3A",
": c #3D3D3B",
"> c #40403E",
", c #41413F",
"< c #414140",
"1 c #F4F1EF",
/* pixels */
"           .#=:>,,>:=#.           ",
"         O;<<<<<<<<<<<<;o         ",
"       .;<<<<<<<<<<<<<<<<;.       ",
"      +,<<<<<<<<<<<<<<<<<<,#      ",
"     %<<<<<<<<<<<<<<<<<<<<<<*     ",
"    &<<<<<<<<<<<<<<<<<<<<<<<<%    ",
"   +<<<<<<<<<<<<<<<<<<<<<<<<<<#   ",
"  .,<<<<<<<<<<<<<<<<<<<<<<<<<<,.  ",
"  ;<<<<<<<<<<<<<<<<<<<<<<<<<<<<;  ",
" X<<<<<<<<<<<<<<<<<<<<<<<<<<<<<<o ",
" ;<<<<<<<<<<<<<<<<<<<<<<<<<<<<<<; ",
".<<<<<<<<<<<<<<<<<<<<<<<<<<<<<<<<.",
"#<<<<<<<<<<<<<<<<<<<<<<<<<<<<<<<<@",
"=<<<<<<<<<<<<<<<<<<<<<<<<<<<<<<<<=",
":<<<<<<<<<<<<<<<<<<<<<<<<<<<<<<<<:",
"><<<<<<<<<<<<<<<<<<<<<<<<<<<<<<<<>",
",<<<<<<<<<<<<<<<<<<<<<<<<<<<<<<<<,",
",<<<<<<<<<<<<<<<<<<<<<<<<<<<<<<<<,",
"><<<<<<<<<<<<<<<<<<<<<<<<<<<<<<<<>",
":<<<<<<<<<<<<11111111<<<<<<<<<<<<:",
"=<<<<<<<<<<<<<<<<<<<<<<<<<<<<<<<<=",
"#<<<<<<<<<<<<<<<<<<<<<<<<<<<<<<<<@",
".<<<<<<<<<<<<<<<<<<<<<<<<<<<<<<<<.",
" ;<<<<<<<<<<<<<<<<<<<<<<<<<<<<<<- ",
" X<<<<<<<<<<<<<<<<<<<<<<<<<<<<<<o ",
"  ;<<<<<<<<<<<<<<<<<<<<<<<<<<<<-  ",
"  .,<<<<<<<<<<<<<<<<<<<<<<<<<<,.  ",
"   #<<<<<<<<<<<<<<<<<<<<<<<<<<@   ",
"    %<<<<<<<<<<<<<<<<<<<<<<<<%    ",
"     $<<<<<<<<<<<<<<<<<<<<<<*     ",
"      #,<<<<<<<<<<<<<<<<<<,@      ",
"       .;<<<<<<<<<<<<<<<<-.       ",
"         X;<<<<<<<<<<<<-X         ",
"           .@=:>,,>:=@.           "
};
