/* XPM */
static char *top_right_inactive[] = {
/* columns rows colors chars-per-pixel */
"8 42 5 1 ",
"  c None",
". c #EBE7E7",
"X c #EAE8E7",
"o c #EBE8E7",
"O c #EBE8E8",
/* pixels */
"oooo    ",
"oooooO  ",
"oooooo. ",
"ooooooo ",
"oooooooX",
"oooooooo",
"oooooooo",
"oooooooo",
"oooooooo",
"oooooooo",
"oooooooo",
"oooooooo",
"oooooooo",
"oooooooo",
"oooooooo",
"oooooooo",
"oooooooo",
"oooooooo",
"oooooooo",
"oooooooo",
"oooooooo",
"oooooooo",
"oooooooo",
"oooooooo",
"oooooooo",
"oooooooo",
"oooooooo",
"oooooooo",
"oooooooo",
"oooooooo",
"oooooooo",
"oooooooo",
"oooooooo",
"oooooooo",
"oooooooo",
"oooooooo",
"oooooooo",
"oooooooo",
"oooooooo",
"oooooooo",
"oooooooo",
"oooooooo"
};
