/* XPM */
static char *top_right_active[] = {
/* columns rows colors chars-per-pixel */
"8 42 5 1 ",
"  c None",
". c #E1E0DF",
"X c #E2E0DF",
"o c #E3E0DF",
"O c #E2E0E0",
/* pixels */
"XXXX    ",
"XXXXX.  ",
"XXXXXXo ",
"XXXXXXX ",
"XXXXXXXX",
"XXXXXXXO",
"XXXXXXXX",
"XXXXXXXX",
"XXXXXXXX",
"XXXXXXXX",
"XXXXXXXX",
"XXXXXXXX",
"XXXXXXXX",
"XXXXXXXX",
"XXXXXXXX",
"XXXXXXXX",
"XXXXXXXX",
"XXXXXXXX",
"XXXXXXXX",
"XXXXXXXX",
"XXXXXXXX",
"XXXXXXXX",
"XXXXXXXX",
"XXXXXXXX",
"XXXXXXXX",
"XXXXXXXX",
"XXXXXXXX",
"XXXXXXXX",
"XXXXXXXX",
"XXXXXXXX",
"XXXXXXXX",
"XXXXXXXX",
"XXXXXXXX",
"XXXXXXXX",
"XXXXXXXX",
"XXXXXXXX",
"XXXXXXXX",
"XXXXXXXX",
"XXXXXXXX",
"XXXXXXXX",
"XXXXXXXX",
"XXXXXXXX"
};
